<?xml version="1.0" encoding="UTF-8"?><svg id="Layer_2" xmlns="http://www.w3.org/2000/svg" xmlns:xlink="http://www.w3.org/1999/xlink" viewBox="0 0 302 77"><defs><style>.cls-1{fill:#333033;}.cls-2{fill:url(#linear-gradient);stroke:#fff;stroke-width:2px;}.cls-2,.cls-3{stroke-miterlimit:10;}.cls-3{fill:none;stroke:#22ac9b;stroke-width:2.78px;}</style><linearGradient id="linear-gradient" x1="58.64" y1="-53.86" x2="243.36" y2="130.86" gradientTransform="matrix(1, 0, 0, 1, 0, 0)" gradientUnits="userSpaceOnUse"><stop offset="0" stop-color="#fff"/><stop offset="1" stop-color="#a1dfd4"/></linearGradient></defs><g id="Layer_1-2"><g><rect class="cls-2" x="1" y="1" width="300" height="75" rx="4.74" ry="4.74"/><g><polyline class="cls-3" points="29.26 44.75 29.26 51 66.76 51 66.76 44.75"/><polyline class="cls-3" points="37.29 26 48.01 38.5 58.72 26"/></g><g><path class="cls-1" d="M88.92,23.64h2.91l4.64,10.98h-3.24l-.79-1.95h-4.21l-.78,1.95h-3.18l4.64-10.98Zm2.65,6.68l-1.21-3.1-1.23,3.1h2.45Z"/><path class="cls-1" d="M97.54,23.71h4.21c3.89,0,6.15,2.24,6.15,5.39v.03c0,3.15-2.29,5.48-6.22,5.48h-4.14v-10.9Zm4.25,8.22c1.81,0,3.01-1,3.01-2.76v-.03c0-1.74-1.2-2.76-3.01-2.76h-1.23v5.54h1.23Z"/><path class="cls-1" d="M109.46,23.71h4.21c3.89,0,6.15,2.24,6.15,5.39v.03c0,3.15-2.29,5.48-6.22,5.48h-4.14v-10.9Zm4.25,8.22c1.81,0,3.01-1,3.01-2.76v-.03c0-1.74-1.2-2.76-3.01-2.76h-1.23v5.54h1.23Z"/><path class="cls-1" d="M128.84,30.54l-4.14-6.82h3.44l2.24,3.97,2.26-3.97h3.38l-4.14,6.78v4.13h-3.04v-4.08Z"/><path class="cls-1" d="M135.58,29.2v-.03c0-3.13,2.52-5.67,5.89-5.67s5.86,2.51,5.86,5.64v.03c0,3.13-2.52,5.67-5.89,5.67s-5.86-2.51-5.86-5.64Zm8.66,0v-.03c0-1.57-1.14-2.94-2.8-2.94s-2.76,1.34-2.76,2.91v.03c0,1.57,1.14,2.94,2.79,2.94s2.77-1.34,2.77-2.91Z"/><path class="cls-1" d="M148.76,29.84v-6.12h3.07v6.06c0,1.57,.8,2.32,2.01,2.32s2.01-.72,2.01-2.24v-6.14h3.07v6.04c0,3.52-2.01,5.06-5.11,5.06s-5.05-1.57-5.05-4.98Z"/><path class="cls-1" d="M160.71,23.71h5.16c1.67,0,2.82,.44,3.55,1.18,.64,.62,.97,1.46,.97,2.54v.03c0,1.67-.89,2.77-2.24,3.35l2.6,3.8h-3.49l-2.2-3.3h-1.32v3.3h-3.02v-10.9Zm5.02,5.23c1.03,0,1.62-.5,1.62-1.29v-.03c0-.86-.62-1.29-1.63-1.29h-1.98v2.62h1.99Z"/><path class="cls-1" d="M176.24,23.71h4.67c2.76,0,4.53,1.42,4.53,3.83v.03c0,2.57-1.98,3.93-4.69,3.93h-1.5v3.11h-3.02v-10.9Zm4.46,5.42c1.07,0,1.73-.56,1.73-1.42v-.03c0-.93-.65-1.43-1.74-1.43h-1.42v2.88h1.43Z"/><path class="cls-1" d="M186.72,23.71h8.77v2.57h-5.78v1.65h5.23v2.38h-5.23v1.73h5.86v2.57h-8.85v-10.9Z"/><path class="cls-1" d="M197.12,23.71h5.16c1.67,0,2.82,.44,3.55,1.18,.64,.62,.97,1.46,.97,2.54v.03c0,1.67-.89,2.77-2.24,3.35l2.6,3.8h-3.49l-2.2-3.3h-1.32v3.3h-3.02v-10.9Zm5.02,5.23c1.03,0,1.62-.5,1.62-1.29v-.03c0-.86-.62-1.29-1.63-1.29h-1.98v2.62h1.99Z"/><path class="cls-1" d="M208.32,23.71h3.02v4.42l3.75-4.42h3.58l-4.13,4.69,4.27,6.21h-3.63l-2.74-4.05-1.11,1.23v2.82h-3.02v-10.9Z"/><path class="cls-1" d="M218.72,33l1.68-2.01c1.07,.86,2.27,1.31,3.54,1.31,.81,0,1.25-.28,1.25-.75v-.03c0-.45-.36-.7-1.84-1.04-2.32-.53-4.11-1.18-4.11-3.43v-.03c0-2.03,1.6-3.49,4.22-3.49,1.85,0,3.3,.5,4.49,1.45l-1.51,2.13c-1-.7-2.09-1.07-3.05-1.07-.73,0-1.09,.31-1.09,.7v.03c0,.5,.37,.72,1.88,1.06,2.51,.55,4.06,1.36,4.06,3.4v.03c0,2.23-1.76,3.55-4.41,3.55-1.93,0-3.77-.61-5.11-1.81Z"/><path class="cls-1" d="M233.65,29.2v-.03c0-3.18,2.45-5.67,5.75-5.67,2.23,0,3.66,.93,4.63,2.27l-2.27,1.76c-.62-.78-1.34-1.28-2.38-1.28-1.53,0-2.6,1.29-2.6,2.88v.03c0,1.63,1.07,2.91,2.6,2.91,1.14,0,1.81-.53,2.46-1.32l2.27,1.62c-1.03,1.42-2.41,2.46-4.83,2.46-3.11,0-5.62-2.38-5.62-5.64Z"/><path class="cls-1" d="M249.07,23.64h2.91l4.64,10.98h-3.24l-.79-1.95h-4.21l-.78,1.95h-3.18l4.64-10.98Zm2.65,6.68l-1.21-3.1-1.23,3.1h2.45Z"/><path class="cls-1" d="M257.7,23.71h5.16c1.67,0,2.82,.44,3.55,1.18,.64,.62,.97,1.46,.97,2.54v.03c0,1.67-.89,2.77-2.24,3.35l2.6,3.8h-3.49l-2.2-3.3h-1.32v3.3h-3.02v-10.9Zm5.02,5.23c1.03,0,1.62-.5,1.62-1.29v-.03c0-.86-.62-1.29-1.63-1.29h-1.98v2.62h1.99Z"/><path class="cls-1" d="M268.9,23.71h4.21c3.89,0,6.15,2.24,6.15,5.39v.03c0,3.15-2.29,5.48-6.21,5.48h-4.14v-10.9Zm4.25,8.22c1.81,0,3.01-1,3.01-2.76v-.03c0-1.74-1.2-2.76-3.01-2.76h-1.23v5.54h1.23Z"/><path class="cls-1" d="M89.85,53.32h-1.25v-9.77h-3.66v-1.14h8.57v1.14h-3.66v9.77Z"/><path class="cls-1" d="M100.14,53.5c-3.32,0-5.54-2.6-5.54-5.62s2.26-5.65,5.58-5.65,5.54,2.6,5.54,5.62-2.26,5.65-5.58,5.65Zm0-10.14c-2.49,0-4.27,1.99-4.27,4.49s1.81,4.52,4.3,4.52,4.27-1.99,4.27-4.49-1.81-4.52-4.3-4.52Z"/><path class="cls-1" d="M117.65,53.32h-1.25v-4.31l-4.53-6.59h1.5l3.68,5.45,3.71-5.45h1.43l-4.53,6.57v4.33Z"/><path class="cls-1" d="M128.28,53.5c-3.32,0-5.55-2.6-5.55-5.62s2.26-5.65,5.58-5.65,5.54,2.6,5.54,5.62-2.26,5.65-5.58,5.65Zm0-10.14c-2.49,0-4.27,1.99-4.27,4.49s1.81,4.52,4.3,4.52,4.27-1.99,4.27-4.49-1.81-4.52-4.3-4.52Z"/><path class="cls-1" d="M145.37,48.66c0,3.18-1.82,4.83-4.55,4.83s-4.53-1.65-4.53-4.73v-6.34h1.23v6.26c0,2.35,1.25,3.68,3.33,3.68s3.29-1.21,3.29-3.6v-6.34h1.23v6.25Z"/><path class="cls-1" d="M156.85,49.47h-2.65v3.85h-1.23v-10.9h4.08c2.46,0,4.08,1.31,4.08,3.47,0,2.37-1.96,3.58-4.28,3.58Zm.11-5.92h-2.76v4.8h2.7c1.81,0,2.99-.97,2.99-2.41,0-1.57-1.17-2.38-2.93-2.38Z"/><path class="cls-1" d="M164.61,48.41v4.91h-1.23v-10.9h1.23v4.84h6.29v-4.84h1.23v10.9h-1.23v-4.91h-6.29Z"/><path class="cls-1" d="M180.28,53.5c-3.32,0-5.54-2.6-5.54-5.62s2.26-5.65,5.58-5.65,5.54,2.6,5.54,5.62-2.26,5.65-5.58,5.65Zm0-10.14c-2.49,0-4.27,1.99-4.27,4.49s1.81,4.52,4.3,4.52,4.27-1.99,4.27-4.49-1.81-4.52-4.3-4.52Z"/><path class="cls-1" d="M191.85,53.32h-1.25v-9.77h-3.66v-1.14h8.57v1.14h-3.66v9.77Z"/><path class="cls-1" d="M202.13,53.5c-3.32,0-5.54-2.6-5.54-5.62s2.26-5.65,5.58-5.65,5.54,2.6,5.54,5.62-2.26,5.65-5.58,5.65Zm0-10.14c-2.49,0-4.27,1.99-4.27,4.49s1.81,4.52,4.3,4.52,4.27-1.99,4.27-4.49-1.81-4.52-4.3-4.52Z"/><path class="cls-1" d="M214.15,47.28c2.43,.53,3.55,1.42,3.55,3.1,0,1.88-1.56,3.1-3.72,3.1-1.73,0-3.15-.58-4.45-1.75l.76-.9c1.14,1.03,2.23,1.54,3.74,1.54s2.43-.76,2.43-1.87c0-1.03-.55-1.6-2.83-2.09-2.51-.54-3.66-1.35-3.66-3.16s1.51-2.99,3.58-2.99c1.59,0,2.73,.45,3.83,1.34l-.72,.95c-1.01-.83-2.03-1.18-3.15-1.18-1.42,0-2.32,.78-2.32,1.78s.56,1.62,2.96,2.13Z"/></g></g></g></svg>