<svg width="197" height="34" viewBox="0 0 197 34" fill="none" xmlns="http://www.w3.org/2000/svg">
<g clip-path="url(#clip0_251_540)">
<path d="M102.648 0L98.5653 5.00045L102.681 10.0377L98.5675 15.075L102.648 20.0711L110.848 10.0377L102.648 0Z" fill="#C2D500"/>
<path d="M94.4826 0L86.2822 10.0377L94.4826 20.0711L98.5654 15.0728L94.4499 10.0377L98.5654 5.00045L94.4826 0Z" fill="#00AC98"/>
<path d="M12.0509 6.08159C12.0509 8.13117 10.794 9.17762 9.5611 9.71276C11.4224 10.2696 12.9259 11.3377 12.9259 13.4999C12.9259 16.1951 10.6587 17.7767 7.22623 17.7767H0.25V2.18176H6.93601C10.0324 2.18176 12.0509 3.6962 12.0509 6.07942M10.2572 6.32425C10.2572 4.76432 9.02211 3.76336 6.7789 3.76336H2.00006V9.13212H6.64579C8.77772 9.13212 10.2594 8.1745 10.2594 6.32641M11.1344 13.3873C11.1344 11.6713 9.69857 10.6921 6.96001 10.6921H2.00006V16.193H7.27424C9.65275 16.193 11.1344 15.1465 11.1344 13.3873Z" fill="#333132"/>
<path d="M29.8439 11.1145C29.8439 15.6578 27.2188 18.0194 23.291 18.0194C19.3632 18.0194 16.7621 15.6578 16.7621 11.2467V2.18176H18.534V11.1384C18.534 14.5031 20.3298 16.3966 23.3368 16.3966C26.3438 16.3966 28.0698 14.659 28.0698 11.251V2.18176H29.8417V11.1145H29.8439Z" fill="#333132"/>
<path d="M45.4155 17.7767L40.8593 11.7168H36.3728V17.7767H34.601V2.18176H41.3546C44.8089 2.18176 47.0303 4.03201 47.0303 6.83772C47.0303 9.44411 45.2344 10.9585 42.7664 11.4049L47.5911 17.7767H45.4155ZM41.2193 3.80886H36.3728V10.1352H41.1953C43.552 10.1352 45.2344 8.9328 45.2344 6.90489C45.2344 4.87698 43.7528 3.80886 41.2193 3.80886Z" fill="#333132"/>
<path d="M62.9379 2.18176H64.6661V17.7767H63.2521L53.1118 4.98964V17.7767H51.3835V2.18176H53.0441L62.9379 14.6785V2.18176Z" fill="#333132"/>
<path d="M75.3018 9.13211C78.8019 9.89041 80.4166 11.16 80.4166 13.5649C80.4166 16.2601 78.1734 17.9977 75.0552 17.9977C72.5654 17.9977 70.5229 17.1744 68.6376 15.5018L69.7374 14.2105C71.374 15.6816 72.9451 16.4161 75.1206 16.4161C77.2962 16.4161 78.6208 15.3242 78.6208 13.7426C78.6208 12.2715 77.8352 11.4482 74.538 10.757C70.9244 9.97707 69.2638 8.81795 69.2638 6.23323C69.2638 3.64851 71.4394 1.95642 74.4246 1.95642C76.7136 1.95642 78.3502 2.60206 79.9453 3.87167L78.9132 5.23011C77.4555 4.04933 75.9979 3.53802 74.3809 3.53802C72.3384 3.53802 71.0379 4.65164 71.0379 6.07724C71.0379 7.50284 71.8453 8.3933 75.3018 9.12777" fill="#333132"/>
<path d="M122.68 9.13211C126.18 9.89041 127.795 11.16 127.795 13.5649C127.795 16.2601 125.552 17.9977 122.433 17.9977C119.944 17.9977 117.901 17.1744 116.016 15.5018L117.116 14.2105C118.752 15.6816 120.323 16.4161 122.499 16.4161C124.674 16.4161 125.999 15.3242 125.999 13.7426C125.999 12.2715 125.213 11.4482 121.916 10.757C118.303 9.97707 116.642 8.81795 116.642 6.23323C116.642 3.64851 118.818 1.95642 121.803 1.95642C124.092 1.95642 125.728 2.60206 127.323 3.87167L126.291 5.23011C124.834 4.04933 123.376 3.53802 121.759 3.53802C119.717 3.53802 118.416 4.65164 118.416 6.07724C118.416 7.50284 119.223 8.3933 122.68 9.12777" fill="#333132"/>
<path d="M139.148 18.0432C134.616 18.0432 131.273 14.5008 131.273 10.0009C131.273 5.5009 134.594 1.91522 139.216 1.91522C142.066 1.91522 143.77 2.91618 145.341 4.38728L144.13 5.67856C142.806 4.43061 141.326 3.54015 139.194 3.54015C135.716 3.54015 133.113 6.32419 133.113 9.95537C133.113 13.5865 135.738 16.4161 139.194 16.4161C141.348 16.4161 142.762 15.5928 144.263 14.1672L145.431 15.3046C143.794 16.9534 141.998 18.0453 139.148 18.0453" fill="#333132"/>
<path d="M163.717 17.7767H161.81L159.97 13.6559H151.421L149.557 17.7767H147.739L154.897 2.07123H156.557L163.715 17.7767H163.717ZM155.708 4.1208L152.119 12.0743H159.276L155.708 4.1208Z" fill="#333132"/>
<path d="M167.376 2.18176H169.146V16.1496H177.988V17.7767H167.376V2.18176Z" fill="#333132"/>
<path d="M188.218 18.0432C183.439 18.0432 180.231 14.3232 180.231 10.0009C180.231 5.67856 183.485 1.91522 188.263 1.91522C193.042 1.91522 196.25 5.63522 196.25 9.95753C196.25 14.2798 192.996 18.0453 188.218 18.0453M188.218 3.54232C184.628 3.54232 182.068 6.39352 182.068 9.95753C182.068 13.5215 184.672 16.4183 188.261 16.4183C191.851 16.4183 194.408 13.567 194.408 10.003C194.408 6.43902 191.805 3.54232 188.215 3.54232" fill="#333132"/>
<path d="M45.1972 33.8873L42.8929 30.8216H40.6213V33.8873H39.7245V25.9967H43.1417C44.8896 25.9967 46.0134 26.9326 46.0134 28.3517C46.0134 29.6712 45.1056 30.436 43.8552 30.6635L46.297 33.8873H45.1951H45.1972ZM43.074 26.82H40.6235V30.02H43.0653C44.2567 30.02 45.1078 29.4112 45.1078 28.3864C45.1078 27.3616 44.3593 26.82 43.0762 26.82" fill="#727372"/>
<path d="M57.6463 26.8091H52.7998V29.5044H57.1379V30.3147H52.7998V33.077H57.703V33.8873H51.903V25.9988H57.6463V26.8091Z" fill="#727372"/>
<path d="M70.8808 33.8874H69.9163L68.9867 31.8031H64.6618L63.7213 33.8874H62.8026L66.4227 25.9425H67.2629L70.8852 33.8874H70.8808ZM66.8286 26.9782L65.0131 31.0015H68.6332L66.8286 26.9782Z" fill="#727372"/>
<path d="M76.4169 25.9988H77.3137V33.0662H81.7849V33.8873H76.4169V25.9988Z" fill="#727372"/>
<path d="M100.531 26.8091H95.6849V29.5044H100.021V30.3147H95.6849V33.077H100.588V33.8873H94.7881V25.9988H100.531V26.8091Z" fill="#727372"/>
<path d="M109.214 29.5152C110.984 29.8987 111.802 30.54 111.802 31.7576C111.802 33.1225 110.667 34 109.09 34C107.828 34 106.796 33.584 105.843 32.7369L106.399 32.0826C107.228 32.8279 108.023 33.1984 109.125 33.1984C110.227 33.1984 110.894 32.6459 110.894 31.8464C110.894 31.1033 110.497 30.6852 108.828 30.3363C107.001 29.942 106.161 29.3549 106.161 28.0484C106.161 26.742 107.261 25.884 108.771 25.884C109.93 25.884 110.757 26.2112 111.562 26.8547L111.04 27.5415C110.303 26.9435 109.565 26.6857 108.747 26.6857C107.715 26.6857 107.056 27.249 107.056 27.9704C107.056 28.6919 107.464 29.1426 109.214 29.5152Z" fill="#727372"/>
<path d="M120.437 33.8873H119.527V26.8221H116.86V25.9988H123.103V26.8221H120.437V33.8873Z" fill="#727372"/>
<path d="M135.133 33.8874H134.169L133.237 31.8031H128.912L127.969 33.8874H127.048L130.671 25.9425H131.511L135.131 33.8874H135.133ZM131.081 26.9782L129.265 31.0015H132.888L131.083 26.9782H131.081Z" fill="#727372"/>
<path d="M142.655 33.8873H141.747V26.8221H139.081V25.9988H145.324V26.8221H142.655V33.8873Z" fill="#727372"/>
<path d="M156.717 26.8091H151.87V29.5044H156.206V30.3147H151.87V33.077H156.773V33.8873H150.973V25.9988H156.717V26.8091Z" fill="#727372"/>
</g>
<defs>
<clipPath id="clip0_251_540">
<rect width="196" height="34" fill="white" transform="translate(0.25)"/>
</clipPath>
</defs>
</svg>
