<?xml version="1.0" encoding="utf-8"?>
<!-- Generator: Adobe Illustrator 27.2.0, SVG Export Plug-In . SVG Version: 6.00 Build 0)  -->
<svg version="1.1" id="Layer_1" xmlns="http://www.w3.org/2000/svg" xmlns:xlink="http://www.w3.org/1999/xlink" x="0px" y="0px"
	 viewBox="0 0 31.5 31.5" style="enable-background:new 0 0 31.5 31.5;" xml:space="preserve">
<style type="text/css">
	.st0{fill:#333033;}
</style>
<path id="Icon_awesome-facebook-square" class="st0" d="M28.1,0H3.4C1.5,0,0,1.5,0,3.4v24.8c0,1.9,1.5,3.4,3.4,3.4l0,0H13V20.8H8.6
	v-5H13v-3.8c0-4.4,2.6-6.8,6.6-6.8c1.3,0,2.6,0.1,3.9,0.3v4.3h-2.2c-1.4-0.2-2.6,0.8-2.8,2.2c0,0.2,0,0.4,0,0.6v3.3h4.8l-0.8,5h-4.1
	v10.7h9.6c1.9,0,3.4-1.5,3.4-3.4l0,0V3.4C31.5,1.5,30,0,28.1,0z"/>
</svg>
