<svg id="Layer_1" data-name="Layer 1" xmlns="http://www.w3.org/2000/svg" viewBox="0 0 591.06 500"><defs><style>.cls-1{fill:#333033;}</style></defs><g id="Layer_2" data-name="Layer 2"><g id="Layer_1-2" data-name="Layer 1-2"><path class="cls-1" d="M248.21,0H459.62a36.29,36.29,0,0,1,36.5,29.84,37.05,37.05,0,0,1,.49,5.56V460.93a35.4,35.4,0,0,1-33.73,35.26H37.22A34.72,34.72,0,0,1,1.54,470.72,38,38,0,0,1,0,460.24V36.1A35.13,35.13,0,0,1,34.15,0H248.21ZM264.8,217.87V190.94c0-4.09-1.05-5.62-5.49-5.62H198.44c-4.85,0-5.9,1.53-5.9,6.11V417.62c0,4.65,1.18,6.25,6,6.18h63.16c4.72,0,6-1.39,6-6.11V303.93a141.47,141.47,0,0,1,1.94-23.52c2.85-16,10.14-29.08,27.35-33.32a65.52,65.52,0,0,1,16.52-1.53,30.26,30.26,0,0,1,32.27,25.13,133.74,133.74,0,0,1,3.19,29.84v117c0,4.58,1.18,6.32,6,6.25h63.16c4.51,0,5.76-1.39,5.76-5.83V292.07A217.06,217.06,0,0,0,419.08,241c-5.34-23-16-42.54-38.52-52.61a102.92,102.92,0,0,0-69.4-5.83A76.34,76.34,0,0,0,264.8,218ZM147.71,304.35V191c0-4.16-1.11-5.55-5.48-5.48H78.16c-4.23,0-5.55,1-5.55,5.41V418.45c0,4.51,1.6,5.49,5.62,5.49h63.23c6.18,0,6.18,0,6.18-6.25ZM110.3,153.74a43.1,43.1,0,1,0-43.17-43v.35a42.88,42.88,0,0,0,43.1,42.68Z"/><path class="cls-1" d="M554,433.17a32.89,32.89,0,0,1,33.65,32.12c0,.38,0,.75,0,1.12a33.6,33.6,0,0,1-67.19,0A32.91,32.91,0,0,1,553,433.16Zm-1.53,63.57a30.54,30.54,0,1,0-28.8-33.59,30.12,30.12,0,0,0,26.43,33.41C550.89,496.65,551.69,496.71,552.48,496.74Z"/><path class="cls-1" d="M558.31,468.77l9.3,14.51-1,1.18a18.34,18.34,0,0,1-4.51-3.19,105.58,105.58,0,0,1-6.94-10.48,5,5,0,0,0-6.63-2.45l-.31.15c-1,0-1.53,2.92-1.67,4.52v8.32c0,.91-1.25,1.67-1.94,2.5-.7-.83-2-1.59-2-2.43V451.7c0-1,2.08-2.5,3.26-2.64a109.64,109.64,0,0,1,12.56,0,8.88,8.88,0,0,1,9.51,8.19,9.37,9.37,0,0,1-6.94,10.2Zm-11.52-16.45V462.8a2.76,2.76,0,0,0,1.87,2,64,64,0,0,0,11-.77,4.72,4.72,0,0,0,3.71-5.55,4.76,4.76,0,0,0-.31-1,8.61,8.61,0,0,0-4.86-5A51.55,51.55,0,0,0,546.79,452.32Z"/></g></g></svg>