<?xml version="1.0" encoding="UTF-8"?><svg id="Layer_2" xmlns="http://www.w3.org/2000/svg" viewBox="0 0 288 44.73"><defs><style>.cls-1{fill:#67686b;}.cls-2{fill:#333033;}.cls-3{fill:#a3d9d0;}</style></defs><g id="Layer_1-2"><g><rect class="cls-3" y="10.21" width="288" height="17.9"/><g><path class="cls-1" d="M26.15,37.79c0,1.19-.72,1.8-1.43,2.11,1.07,.32,1.94,.94,1.94,2.2,0,1.56-1.31,2.48-3.28,2.48h-4.02v-9.05h3.85c1.78,0,2.95,.88,2.95,2.26Zm-1.03,.14c0-.91-.71-1.49-2-1.49h-2.75v3.11h2.68c1.23,0,2.08-.56,2.08-1.63Zm.5,4.1c0-1-.83-1.56-2.4-1.56h-2.86v3.19h3.04c1.37,0,2.22-.61,2.22-1.63Z"/><path class="cls-1" d="M38.66,40.72c0,2.64-1.51,4.01-3.77,4.01s-3.76-1.37-3.76-3.93v-5.26h1.02v5.2c0,1.95,1.03,3.05,2.77,3.05s2.73-1.01,2.73-2.99v-5.26h1.02v5.18Z"/><path class="cls-1" d="M49.89,44.58l-2.62-3.52h-2.58v3.52h-1.02v-9.05h3.89c1.99,0,3.27,1.07,3.27,2.7,0,1.51-1.03,2.39-2.46,2.65l2.78,3.7h-1.25Zm-2.42-8.1h-2.79v3.67h2.78c1.36,0,2.33-.7,2.33-1.87s-.85-1.8-2.31-1.8Z"/><path class="cls-1" d="M62.25,35.53h1v9.05h-.81l-5.84-7.42v7.42h-1v-9.05h.96l5.7,7.25v-7.25Z"/><path class="cls-1" d="M71.63,39.56c2.02,.44,2.95,1.18,2.95,2.57,0,1.56-1.29,2.57-3.09,2.57-1.43,0-2.61-.48-3.7-1.45l.63-.75c.94,.85,1.85,1.28,3.1,1.28s2.02-.63,2.02-1.55c0-.85-.45-1.33-2.35-1.73-2.08-.45-3.04-1.12-3.04-2.62s1.25-2.48,2.97-2.48c1.32,0,2.26,.37,3.18,1.11l-.59,.79c-.84-.68-1.68-.98-2.61-.98-1.18,0-1.93,.65-1.93,1.47s.47,1.34,2.46,1.77Z"/><path class="cls-1" d="M88.95,39.56c2.02,.44,2.95,1.18,2.95,2.57,0,1.56-1.29,2.57-3.09,2.57-1.43,0-2.61-.48-3.7-1.45l.63-.75c.94,.85,1.85,1.28,3.1,1.28s2.02-.63,2.02-1.55c0-.85-.45-1.33-2.35-1.73-2.08-.45-3.04-1.12-3.04-2.62s1.25-2.48,2.97-2.48c1.32,0,2.26,.37,3.18,1.11l-.59,.79c-.84-.68-1.68-.98-2.61-.98-1.18,0-1.93,.65-1.93,1.47s.47,1.34,2.46,1.77Z"/><path class="cls-1" d="M100.7,44.73c-2.61,0-4.54-2.05-4.54-4.67s1.91-4.69,4.58-4.69c1.64,0,2.62,.58,3.53,1.43l-.7,.75c-.76-.72-1.62-1.24-2.84-1.24-2,0-3.5,1.62-3.5,3.72s1.51,3.75,3.5,3.75c1.24,0,2.06-.48,2.92-1.31l.67,.66c-.94,.96-1.98,1.59-3.62,1.59Z"/><path class="cls-1" d="M117.11,44.58h-1.1l-1.06-2.39h-4.92l-1.07,2.39h-1.05l4.12-9.11h.96l4.12,9.11Zm-4.61-7.92l-2.07,4.61h4.12l-2.05-4.61Z"/><path class="cls-1" d="M121.48,35.53h1.02v8.1h5.09v.94h-6.11v-9.05Z"/><path class="cls-1" d="M135.75,44.73c-2.75,0-4.6-2.16-4.6-4.67s1.87-4.69,4.63-4.69,4.6,2.16,4.6,4.67-1.87,4.69-4.63,4.69Zm0-8.41c-2.07,0-3.54,1.65-3.54,3.72s1.5,3.75,3.57,3.75,3.54-1.65,3.54-3.72-1.5-3.75-3.57-3.75Z"/><path class="cls-1" d="M157.81,44.58l-2.62-3.52h-2.58v3.52h-1.02v-9.05h3.89c1.99,0,3.27,1.07,3.27,2.7,0,1.51-1.03,2.39-2.46,2.65l2.78,3.7h-1.25Zm-2.42-8.1h-2.79v3.67h2.78c1.36,0,2.33-.7,2.33-1.87s-.85-1.8-2.31-1.8Z"/><path class="cls-1" d="M170.05,36.46h-5.52v3.09h4.94v.93h-4.94v3.17h5.58v.93h-6.6v-9.05h6.54v.93Z"/><path class="cls-1" d="M183.18,44.58h-1.1l-1.06-2.39h-4.92l-1.07,2.39h-1.05l4.12-9.11h.96l4.12,9.11Zm-4.61-7.92l-2.07,4.61h4.12l-2.06-4.61Z"/><path class="cls-1" d="M187.55,35.53h1.02v8.1h5.09v.94h-6.11v-9.05Z"/><path class="cls-1" d="M211.14,36.46h-5.52v3.09h4.94v.93h-4.94v3.17h5.58v.93h-6.6v-9.05h6.54v.93Z"/><path class="cls-1" d="M219.09,39.56c2.02,.44,2.95,1.18,2.95,2.57,0,1.56-1.29,2.57-3.09,2.57-1.43,0-2.61-.48-3.7-1.45l.63-.75c.94,.85,1.85,1.28,3.1,1.28s2.02-.63,2.02-1.55c0-.85-.45-1.33-2.35-1.73-2.08-.45-3.04-1.12-3.04-2.62s1.25-2.48,2.97-2.48c1.32,0,2.26,.37,3.18,1.11l-.59,.79c-.84-.68-1.68-.98-2.61-.98-1.18,0-1.93,.65-1.93,1.47s.47,1.34,2.46,1.77Z"/><path class="cls-1" d="M229.93,44.58h-1.03v-8.1h-3.04v-.94h7.11v.94h-3.04v8.1Z"/><path class="cls-1" d="M244.73,44.58h-1.1l-1.06-2.39h-4.92l-1.07,2.39h-1.05l4.12-9.11h.96l4.12,9.11Zm-4.61-7.92l-2.07,4.61h4.12l-2.06-4.61Z"/><path class="cls-1" d="M251.36,44.58h-1.03v-8.1h-3.04v-.94h7.11v.94h-3.04v8.1Z"/><path class="cls-1" d="M265.43,36.46h-5.52v3.09h4.94v.93h-4.94v3.17h5.58v.93h-6.6v-9.05h6.54v.93Z"/></g><g><path class="cls-2" d="M26.01,14.85h-3.48v6.24h-4.58V.3h8.5c4.96,0,7.96,2.94,7.96,7.19v.06c0,4.81-3.74,7.31-8.41,7.31Zm3.77-7.28c0-2.05-1.43-3.15-3.71-3.15h-3.54v6.36h3.62c2.29,0,3.62-1.37,3.62-3.15v-.06Z"/><path class="cls-2" d="M51.21,21.09l-1.9-4.66h-8.79l-1.9,4.66h-4.66L42.86,.15h4.22l8.91,20.94h-4.78Zm-6.3-15.45l-2.76,6.74h5.53l-2.76-6.74Z"/><path class="cls-2" d="M71.83,21.09l-4.46-6.65h-3.59v6.65h-4.58V.3h9.51c4.9,0,7.84,2.58,7.84,6.86v.06c0,3.36-1.81,5.47-4.46,6.45l5.08,7.43h-5.35Zm.09-13.7c0-1.96-1.37-2.97-3.59-2.97h-4.55v5.97h4.63c2.23,0,3.51-1.19,3.51-2.94v-.06Z"/><path class="cls-2" d="M90.1,4.52V21.09h-4.58V4.52h-6.33V.3h17.23V4.52h-6.33Z"/><path class="cls-2" d="M114.52,21.09l-10.07-13.22v13.22h-4.52V.3h4.22l9.74,12.8V.3h4.52V21.09h-3.89Z"/><path class="cls-2" d="M123.41,21.09V.3h15.69V4.37h-11.14v4.22h9.8v4.07h-9.8v4.37h11.29v4.07h-15.83Z"/><path class="cls-2" d="M155.94,21.09l-4.46-6.65h-3.59v6.65h-4.57V.3h9.51c4.9,0,7.84,2.58,7.84,6.86v.06c0,3.36-1.81,5.47-4.46,6.45l5.08,7.43h-5.35Zm.09-13.7c0-1.96-1.37-2.97-3.59-2.97h-4.55v5.97h4.63c2.23,0,3.51-1.19,3.51-2.94v-.06Z"/><path class="cls-2" d="M181.56,13.76h-5.05v7.34h-2.35V.3h7.78c4.69,0,7.78,2.5,7.78,6.63,0,4.52-3.74,6.83-8.17,6.83Zm.21-11.29h-5.26V11.62h5.14c3.45,0,5.7-1.84,5.7-4.6,0-3-2.23-4.55-5.58-4.55Z"/><path class="cls-2" d="M209.04,2.44h-12.69v7.1h11.35v2.14h-11.35v7.28h12.83v2.14h-15.18V.3h15.03V2.44Z"/><path class="cls-2" d="M228.23,21.09l-6.03-8.08h-5.94v8.08h-2.35V.3h8.94c4.58,0,7.52,2.47,7.52,6.21,0,3.48-2.38,5.5-5.64,6.09l6.39,8.5h-2.88Zm-5.56-18.63h-6.42V10.9h6.39c3.12,0,5.35-1.6,5.35-4.31s-1.96-4.13-5.32-4.13Z"/><path class="cls-2" d="M253.1,21.09h-2.94l-7.99-10.07-4.43,4.49v5.59h-2.35V.3h2.35V12.72L249.69,.3h3.03l-8.91,9.09,9.3,11.71Z"/><path class="cls-2" d="M263.92,9.57c4.63,1.01,6.77,2.7,6.77,5.91,0,3.59-2.97,5.91-7.1,5.91-3.3,0-6-1.1-8.5-3.33l1.46-1.72c2.17,1.96,4.25,2.94,7.13,2.94s4.63-1.46,4.63-3.57c0-1.96-1.04-3.06-5.41-3.98-4.78-1.04-6.98-2.58-6.98-6.03s2.88-5.7,6.83-5.7c3.03,0,5.2,.86,7.31,2.56l-1.37,1.81c-1.93-1.57-3.86-2.26-6-2.26-2.7,0-4.43,1.49-4.43,3.39s1.07,3.09,5.65,4.07Z"/></g></g></g></svg>