<?xml version="1.0" encoding="utf-8"?>
<!-- Generator: Adobe Illustrator 27.2.0, SVG Export Plug-In . SVG Version: 6.00 Build 0)  -->
<svg version="1.1" id="Layer_1" xmlns="http://www.w3.org/2000/svg" xmlns:xlink="http://www.w3.org/1999/xlink" x="0px" y="0px"
	 viewBox="0 0 31.5 31.5" style="enable-background:new 0 0 31.5 31.5;" xml:space="preserve">
<style type="text/css">
	.st0{fill:#333033;}
</style>
<path id="Icon_awesome-twitter-square" class="st0" d="M28.1,0H3.4C1.5,0,0,1.5,0,3.4v24.8c0,1.9,1.5,3.4,3.4,3.4h24.8
	c1.9,0,3.4-1.5,3.4-3.4V3.4C31.5,1.5,30,0,28.1,0z M24.7,11.2c0,0.2,0,0.4,0,0.6c0,7.2-5.7,13.1-12.9,13.1c-0.1,0-0.1,0-0.2,0
	c-2.5,0-5-0.7-7.1-2.1c0.4,0,0.7,0.1,1.1,0.1c2.1,0,4.1-0.7,5.7-2c-2,0-3.7-1.3-4.3-3.2c0.7,0.1,1.4,0.1,2.1-0.1
	c-2.2-0.4-3.7-2.3-3.7-4.5V13c0.6,0.4,1.4,0.6,2.1,0.6c-1.3-0.9-2.1-2.3-2.1-3.8c0-0.8,0.2-1.6,0.6-2.3c2.3,2.9,5.8,4.6,9.5,4.8
	c-0.6-2.5,1-5,3.5-5.5c1.6-0.4,3.3,0.1,4.4,1.3c1-0.2,2-0.6,2.9-1.1c-0.3,1.1-1.1,2-2,2.5c0.9-0.1,1.8-0.3,2.7-0.7
	C26.4,9.7,25.6,10.5,24.7,11.2z"/>
</svg>
